<?xml version="1.0" standalone="no"?>
<!DOCTYPE svg PUBLIC "-//W3C//DTD SVG 20010904//EN"
 "http://www.w3.org/TR/2001/REC-SVG-20010904/DTD/svg10.dtd">
<svg version="1.0" xmlns="http://www.w3.org/2000/svg"
 width="2000.000000pt" height="2000.000000pt" viewBox="0 0 2000.000000 2000.000000"
 preserveAspectRatio="xMidYMid meet">

<g transform="translate(0.000000,2000.000000) scale(0.100000,-0.100000)"
fill="#000000" stroke="none">
<path d="M11865 14600 c-208 -33 -414 -120 -572 -241 -75 -58 -202 -194 -251
-269 -133 -202 -196 -424 -195 -685 1 -218 50 -418 146 -585 l42 -75 243 -3
242 -2 0 -55 0 -55 -195 0 c-109 0 -195 -4 -195 -9 0 -5 34 -41 76 -80 199
-186 453 -299 719 -320 144 -11 398 -5 505 14 365 62 677 290 840 614 142 282
171 621 78 936 -11 39 -27 82 -34 97 l-14 28 -333 2 -332 3 0 65 0 65 298 3
c163 1 297 5 297 8 0 16 -119 160 -186 225 -157 150 -331 243 -554 296 -92 21
-134 25 -335 28 -126 2 -257 0 -290 -5z m355 -531 c82 -19 185 -75 248 -138
73 -72 122 -154 158 -263 25 -75 27 -98 28 -235 l1 -153 83 0 82 0 0 -70 0
-70 -98 0 -99 0 -43 -87 c-79 -160 -216 -265 -390 -301 -70 -15 -82 -14 -146
1 -140 34 -258 115 -335 229 l-41 60 -72 -3 c-39 -1 -135 -2 -213 -1 l-143 2
0 30 0 30 200 0 c110 0 200 1 200 3 0 1 -9 34 -21 72 -26 89 -36 281 -20 384
35 221 147 385 322 469 119 58 183 67 299 41z"/>
<path d="M4800 14455 l0 -125 75 0 75 0 0 -90 0 -90 -75 0 -75 0 0 -760 0
-760 120 0 c113 0 120 -1 120 -20 0 -19 -7 -20 -120 -20 l-120 0 0 -55 0 -55
600 0 600 0 0 -30 0 -30 -600 0 -600 0 0 -90 0 -90 795 0 795 0 0 225 0 225
-427 2 -428 3 0 255 0 255 378 3 377 2 -2 218 -3 217 -377 3 -378 2 0 235 0
235 430 0 431 0 -3 133 -3 132 -252 3 -253 2 0 45 0 45 256 0 255 0 -3 48 -3
47 -792 3 -793 2 0 -125z"/>
<path d="M6608 14574 c-5 -4 -8 -135 -8 -290 l0 -283 118 -3 117 -3 3 -42 3
-43 -120 0 -121 0 0 -65 0 -64 58 -3 57 -3 3 -137 3 -138 -61 0 -60 0 0 -65 0
-65 550 0 550 0 0 -35 0 -35 -550 0 -550 0 0 -100 0 -99 118 -3 117 -3 0 -55
0 -55 -117 -3 -118 -3 0 -369 0 -370 365 0 365 0 0 413 c1 364 2 409 15 387 8
-14 111 -198 228 -410 l213 -385 402 -3 c221 -1 402 0 402 3 0 3 -11 22 -23
43 -23 36 -366 623 -462 790 -26 46 -46 84 -44 86 2 1 33 13 68 26 80 29 198
106 257 167 122 126 185 289 185 482 0 167 -39 304 -118 409 l-24 32 -420 0
-419 0 0 55 0 55 362 0 c355 0 361 0 344 19 -24 26 -137 85 -216 111 -147 50
-186 52 -845 57 -341 3 -623 2 -627 -3z m1030 -488 c90 -24 151 -79 178 -160
26 -76 16 -209 -19 -269 -56 -96 -125 -123 -329 -131 l-138 -5 0 289 0 290
128 0 c77 0 148 -6 180 -14z"/>
<path d="M8777 14573 c-4 -3 -7 -296 -7 -649 l0 -643 128 -3 127 -3 0 -45 0
-45 -127 -3 -128 -3 0 -39 0 -40 215 0 216 0 -3 -77 -3 -78 -212 -3 -213 -2 0
-350 0 -350 365 0 365 0 0 413 1 412 27 -45 c15 -25 117 -209 228 -410 l201
-365 401 -3 c221 -1 402 0 402 3 0 2 -20 37 -43 77 -24 40 -104 177 -177 303
-74 127 -171 293 -216 371 -46 77 -84 146 -86 152 -2 7 30 27 72 46 281 123
433 347 433 636 0 101 -15 205 -34 243 -9 15 -28 17 -174 17 l-165 0 0 30 0
30 150 0 c164 0 165 0 130 58 l-20 32 -255 0 -255 0 0 75 0 75 180 0 c99 0
180 4 180 8 0 11 -92 66 -162 96 -96 42 -206 66 -353 76 -157 11 -1178 14
-1188 3z m1046 -493 c127 -39 183 -132 175 -289 -5 -101 -27 -152 -85 -200
-53 -44 -118 -59 -273 -63 l-135 -3 -3 288 -2 287 129 0 c101 0 143 -4 194
-20z"/>
<path d="M13560 14530 l0 -50 246 0 245 0 -3 -42 -3 -43 -242 -3 -243 -2 0
-25 0 -25 473 -2 472 -3 3 -27 3 -28 -475 0 -476 0 0 -845 0 -844 88 -3 87 -3
0 -50 0 -50 -87 -3 -88 -3 0 -119 0 -120 365 0 365 0 0 412 c0 349 2 409 13
393 8 -11 33 -56 57 -100 92 -169 182 -330 192 -342 8 -10 96 -13 399 -13 214
0 389 3 389 8 0 4 -17 36 -38 72 l-38 65 -172 3 -172 2 0 45 0 45 140 0 c79 0
140 4 140 9 0 5 -22 46 -50 91 -27 45 -50 83 -50 86 0 2 -18 33 -40 68 -22 35
-40 67 -40 72 0 5 29 20 65 33 69 24 190 98 240 147 138 132 205 298 205 506
l0 108 -210 0 -210 0 0 50 0 50 195 0 c176 0 195 2 195 17 0 9 -19 55 -41 102
-34 71 -57 102 -129 173 -72 72 -103 94 -181 132 -198 95 -301 106 -1061 106
l-528 0 0 -50z m1040 -446 c129 -38 189 -123 190 -270 0 -93 -23 -157 -74
-209 -55 -55 -116 -72 -288 -80 l-138 -6 0 290 0 291 128 0 c88 0 145 -5 182
-16z"/>
<path d="M14640 12441 c0 -4 24 -51 53 -102 l53 -94 402 -3 c221 -1 402 0 402
3 0 2 -21 39 -47 82 -25 43 -53 88 -60 101 l-13 22 -395 0 c-217 0 -395 -4
-395 -9z"/>
<path d="M9877 11460 c-268 -24 -535 -112 -725 -238 l-55 -37 790 -3 791 -2 4
-25 c3 -14 3 -36 0 -50 l-4 -25 -858 0 -858 0 -72 -82 c-258 -295 -405 -676
-461 -1198 -16 -146 -16 -579 0 -730 22 -216 66 -438 117 -592 l26 -78 574 0
574 0 0 -94 c0 -85 -2 -94 -20 -99 -10 -3 -248 -6 -527 -6 -279 -1 -509 -3
-510 -5 -2 -2 15 -35 38 -75 l41 -71 876 -2 877 -3 3 -47 3 -48 -840 0 c-563
0 -841 -3 -841 -10 0 -23 229 -239 310 -292 214 -140 439 -219 712 -249 150
-17 553 -5 688 19 127 23 294 79 414 138 287 143 528 405 667 724 62 145 80
200 135 410 19 73 42 228 36 235 -3 3 -183 5 -401 5 -218 0 -406 3 -418 6 -23
6 -37 50 -19 62 6 4 198 8 426 10 228 2 418 7 422 10 23 23 35 480 18 697 -6
88 -14 167 -17 175 -3 8 -8 38 -10 65 -8 99 -72 369 -109 460 l-19 45 -614 2
-614 3 1 58 c0 31 1 73 1 92 l1 34 564 3 c496 3 617 8 569 25 -7 3 -13 11 -13
18 0 17 -33 75 -42 75 -5 0 -8 5 -8 12 0 6 -7 19 -15 28 -13 15 -4 16 113 19
70 1 131 6 135 10 4 4 7 41 5 82 l-3 74 -127 3 -128 3 0 -78 0 -78 -47 55
c-273 317 -572 487 -958 545 -122 18 -465 27 -598 15z m1073 -545 l0 -85 -35
0 -35 0 0 79 c0 85 -1 83 58 90 9 1 12 -22 12 -84z m-751 -710 c62 -21 99 -51
136 -109 76 -119 104 -297 105 -659 0 -320 -17 -468 -71 -612 -39 -106 -154
-195 -249 -195 -88 0 -200 71 -241 153 -47 91 -79 227 -79 335 0 34 -3 62 -7
62 -14 0 -3 582 11 656 37 183 84 280 168 343 53 40 155 52 227 26z"/>
<path d="M6206 11069 c-97 -138 -176 -255 -176 -260 0 -5 80 -9 190 -9 l190 0
0 -23 0 -23 -212 -3 c-206 -2 -214 -3 -230 -24 l-17 -22 190 -3 189 -2 0 -50
0 -50 -227 0 -228 -1 -36 -52 c-19 -29 -100 -144 -179 -257 -144 -206 -189
-270 -643 -917 l-247 -351 0 -161 0 -161 705 0 705 0 0 -35 0 -35 -705 0 -705
0 0 -90 0 -90 1260 0 1260 0 0 -25 0 -25 -1260 0 -1260 0 0 -225 0 -225 829 0
829 0 5 -32 c3 -18 4 -149 4 -291 l-2 -257 658 0 c577 0 657 2 657 15 0 11 12
15 45 15 l45 0 0 274 0 274 184 4 c101 2 188 7 192 11 12 11 18 138 10 192
l-7 45 -92 1 c-51 0 -112 4 -137 7 l-45 7 0 85 c0 66 3 87 15 92 8 4 67 7 131
7 86 1 120 5 128 15 17 20 15 662 -2 673 -7 5 -94 9 -194 11 l-183 4 0 212 0
213 -115 6 c-118 6 -140 11 -129 28 10 17 10 239 -1 243 -5 3 31 5 80 5 50 1
107 4 128 7 l37 7 0 178 0 178 -107 3 -107 3 0 132 -1 131 29 6 c16 3 59 6 97
6 l68 0 3 -67 3 -68 178 -3 177 -2 0 -24 c0 -16 7 -26 23 -30 29 -8 162 -7
210 0 l37 7 0 66 c0 36 -4 71 -8 78 -8 13 -69 21 -174 22 l-67 1 -3 78 -3 77
-180 5 -179 5 -1 30 0 30 -400 6 c-220 4 -403 7 -407 8 -3 0 -4 10 -1 21 5 19
14 20 367 22 198 1 368 2 376 4 8 1 28 2 43 3 23 1 28 5 25 24 l-3 22 -469 5
-469 5 -1 43 c-1 23 -1 43 -1 44 0 1 212 5 470 8 l470 5 0 195 0 195 -42 3
c-35 3 -43 7 -43 23 0 19 -13 19 -684 19 l-684 0 -176 -251z m524 -329 l0
-140 -95 0 -95 0 0 134 c0 155 -9 143 113 145 l77 1 0 -140z m160 -335 l0 -85
-85 0 -85 0 0 85 0 85 85 0 85 0 0 -85z m490 -480 l0 -86 -87 3 -88 3 -3 83
-3 82 91 0 90 0 0 -85z m-850 -590 l0 -235 -155 0 -155 0 56 88 c71 111 106
164 119 179 6 6 37 55 70 107 33 52 61 95 63 96 1 0 2 -106 2 -235z m-957
-104 c4 -1 7 -62 7 -136 l0 -136 -96 3 -96 3 -1 132 -2 132 50 4 c42 2 110 2
138 -2z m-423 -317 c0 -85 0 -86 -22 -80 -13 3 -29 6 -35 6 -9 0 -13 23 -13
80 l0 80 35 0 35 0 0 -86z"/>
<path d="M13648 11303 c-32 -39 -128 -182 -128 -192 0 -7 42 -11 129 -11 122
0 129 -1 124 -19 -6 -24 -23 -27 -174 -30 -96 -2 -128 -6 -141 -18 -10 -9 -18
-20 -18 -25 0 -4 56 -8 124 -8 l124 0 7 -30 c4 -16 4 -39 0 -50 -6 -19 -15
-20 -168 -20 l-162 0 -166 -238 c-92 -130 -285 -406 -429 -612 -145 -206 -282
-402 -305 -435 -22 -33 -125 -180 -228 -327 -103 -146 -187 -269 -187 -272 0
-3 307 -6 683 -6 375 0 712 -3 750 -7 l67 -6 0 -33 0 -34 -752 -2 -753 -3 0
-85 0 -85 1305 -5 1305 -5 3 -22 3 -23 -1307 -2 -1308 -3 0 -370 0 -370 832
-3 832 -2 0 -290 0 -290 660 0 660 0 0 59 0 60 43 3 42 3 0 228 0 227 161 0
c89 0 176 3 193 6 l31 7 0 558 c-1 427 -3 560 -13 566 -7 4 -92 10 -190 13
l-178 5 1 361 0 361 -37 7 c-21 3 -56 6 -78 6 l-40 0 0 132 0 133 75 10 75 10
0 175 0 175 -65 3 -65 3 0 132 0 132 25 6 c14 4 44 7 68 8 l43 1 -3 103 -3
102 -360 6 c-198 4 -361 7 -362 8 -1 0 0 9 1 19 3 16 29 17 354 22 359 5 383
8 369 44 -6 14 -58 16 -434 18 l-428 3 3 40 c2 22 6 42 9 45 2 3 192 6 421 8
312 2 418 6 424 15 5 7 7 33 6 60 l-2 47 -43 0 c-24 0 -43 5 -43 10 0 7 -234
10 -683 10 -639 0 -685 -1 -699 -17z m452 -263 l0 -140 -97 0 -98 0 0 135 c0
111 3 135 15 139 8 2 52 4 98 5 l82 1 0 -140z m160 -335 l0 -85 -42 0 -43 0 0
85 0 85 43 0 42 0 0 -85z m449 -391 l31 -6 0 -78 0 -77 -75 -7 c-42 -4 -80 -4
-85 -1 -6 3 -10 44 -10 91 l0 84 54 0 c29 0 68 -3 85 -6z m-899 -979 l0 -235
-155 0 -155 0 26 43 c15 23 63 98 108 167 45 69 86 132 91 141 21 34 80 119
82 119 2 0 3 -106 3 -235z m-868 73 c2 -80 -1 -137 -7 -143 -6 -6 -44 -9 -92
-7 l-83 4 0 31 c-1 18 -2 78 -3 134 l-2 102 50 4 c28 2 69 4 92 5 l42 2 3
-132z m-424 -190 l-3 -83 -35 3 c-19 2 -37 5 -39 7 -2 2 -4 38 -5 79 l-1 76
43 0 43 0 -3 -82z"/>
<path d="M15190 10760 l0 -140 180 0 180 0 0 -25 0 -26 128 3 127 3 3 71 c3
51 0 74 -10 82 -8 7 -61 12 -128 14 l-114 3 -1 75 0 75 -182 3 -183 2 0 -140z"/>
<path d="M12306 10158 c-3 -13 -4 -52 -3 -88 l2 -65 106 -3 c146 -4 154 0 157
78 4 104 10 100 -133 100 -121 0 -125 -1 -129 -22z"/>
<path d="M11960 9780 l0 -140 234 0 234 0 0 134 -1 134 -36 6 c-20 3 -125 6
-233 6 l-198 0 0 -140z"/>
<path d="M4217 9234 c-4 -4 -7 -67 -7 -141 l0 -133 234 0 c178 0 235 3 238 13
3 6 3 67 0 133 l-4 122 -55 4 c-96 8 -398 10 -406 2z"/>
<path d="M6537 6520 c-62 -11 -141 -50 -192 -95 l-40 -34 81 -1 c67 0 92 5
138 26 76 34 152 34 240 -1 55 -22 77 -25 148 -23 l83 3 -48 39 c-92 75 -268
112 -410 86z"/>
<path d="M9370 6517 c-146 -34 -256 -133 -306 -275 -36 -101 -35 -102 41 -102
62 0 65 1 71 28 29 135 117 232 243 268 98 29 229 -13 308 -98 39 -43 83 -137
83 -178 0 -18 7 -20 70 -20 39 0 70 4 70 8 0 5 -7 33 -16 63 -41 141 -136 243
-273 291 -71 25 -217 32 -291 15z"/>
<path d="M12000 6519 c-58 -11 -135 -50 -185 -94 l-40 -34 85 -1 c58 0 92 5
106 14 11 8 46 22 77 31 67 19 112 15 203 -21 46 -18 79 -24 140 -24 l79 1
-35 31 c-100 88 -275 127 -430 97z"/>
<path d="M4697 6513 c-4 -3 -7 -33 -7 -65 l0 -59 63 3 c57 3 62 5 65 27 4 23
4 23 115 19 92 -3 120 -7 155 -26 31 -16 60 -22 107 -22 36 0 65 4 65 10 0 15
-48 59 -88 79 -21 11 -64 24 -97 30 -63 12 -367 15 -378 4z"/>
<path d="M7220 6455 l0 -65 65 0 c63 0 65 1 65 25 0 14 6 25 13 26 6 0 91 2
187 2 l175 2 0 35 0 35 -252 3 -253 2 0 -65z"/>
<path d="M8217 6513 c-4 -3 -7 -89 -7 -190 l0 -183 59 0 c69 0 71 2 71 98 l0
67 55 -83 55 -82 65 0 c36 0 65 2 65 5 0 8 -234 359 -245 367 -13 10 -109 10
-118 1z"/>
<path d="M8787 6514 c-4 -4 -7 -90 -7 -191 l0 -184 68 3 67 3 0 185 0 185 -60
3 c-34 2 -64 0 -68 -4z"/>
<path d="M10014 6506 c-3 -8 -4 -25 -2 -38 3 -22 6 -23 126 -26 l122 -3 0
-150 0 -150 63 3 62 3 2 143 c1 79 4 146 7 149 3 3 57 5 121 4 l116 -2 -3 38
-3 38 -303 3 c-256 2 -303 0 -308 -12z"/>
<path d="M11087 6514 c-4 -4 -7 -34 -7 -66 l0 -58 64 0 c62 0 65 1 68 26 l3
26 190 2 190 1 0 35 0 35 -251 3 c-138 1 -253 -1 -257 -4z"/>
<path d="M12700 6455 l0 -66 63 3 62 3 3 54 c4 64 -3 71 -75 71 l-53 0 0 -65z"/>
<path d="M13257 6514 c-4 -4 -7 -34 -7 -66 l0 -58 65 0 66 0 -3 63 -3 62 -55
3 c-31 2 -59 0 -63 -4z"/>
<path d="M13547 6513 c-4 -3 -7 -33 -7 -65 l0 -58 106 0 c81 0 104 3 98 13
-21 36 -69 103 -78 109 -14 10 -110 10 -119 1z"/>
<path d="M14120 6455 l0 -66 63 3 62 3 0 60 0 60 -62 3 -63 3 0 -66z"/>
<path d="M14417 6513 c-4 -3 -7 -33 -7 -65 l0 -58 60 0 c52 0 60 2 60 19 0 36
20 40 140 31 146 -11 217 -36 280 -99 103 -103 128 -317 55 -461 -31 -62 -103
-124 -168 -146 -55 -19 -270 -35 -290 -22 -8 5 -11 31 -9 72 6 100 2 106 -69
106 l-59 0 0 -131 0 -131 208 4 c224 5 281 16 375 71 125 74 196 227 184 402
-16 236 -144 371 -381 404 -85 12 -369 15 -379 4z"/>
<path d="M5663 6493 c-3 -10 -12 -33 -19 -52 -8 -18 -14 -37 -14 -42 0 -5 50
-9 111 -9 124 0 120 -4 81 80 -17 34 -18 35 -85 38 -57 2 -68 0 -74 -15z"/>
<path d="M13633 6342 l-93 -3 0 -199 0 -200 65 0 65 0 2 180 3 179 119 -179
119 -180 65 0 c50 0 63 3 59 13 -3 8 -60 97 -127 198 -139 209 -120 196 -277
191z"/>
<path d="M11080 6140 l0 -200 65 0 65 0 0 50 0 50 165 0 165 0 0 35 0 35 -162
2 -163 3 -3 113 -3 112 -64 0 -65 0 0 -200z"/>
<path d="M11707 6283 c-36 -81 -51 -166 -43 -245 9 -98 9 -98 80 -98 l61 0 0
129 c0 128 0 128 37 200 l36 71 -73 0 -72 0 -26 -57z"/>
<path d="M12384 6302 c52 -83 73 -209 53 -319 l-7 -43 64 0 c36 0 68 5 71 11
14 21 17 166 6 219 -6 30 -23 80 -38 112 l-26 58 -73 0 -74 0 24 -38z"/>
<path d="M12700 6140 l0 -200 65 0 65 0 -2 198 -3 197 -62 3 -63 3 0 -201z"/>
<path d="M13250 6140 l0 -200 65 0 65 0 0 200 0 200 -65 0 -65 0 0 -200z"/>
<path d="M14120 6140 l0 -201 63 3 62 3 3 198 2 197 -65 0 -65 0 0 -200z"/>
<path d="M14410 6140 l0 -200 59 0 c40 0 60 4 64 14 8 20 9 350 1 369 -5 13
-19 17 -65 17 l-59 0 0 -200z"/>
<path d="M4690 5965 l0 -335 65 0 65 0 0 189 0 189 143 4 c120 3 150 7 192 26
90 41 133 103 142 204 l6 58 -69 0 -69 0 -2 -50 c-2 -62 -19 -98 -61 -126 -38
-26 -146 -46 -223 -42 l-54 3 -3 108 -3 107 -64 0 -65 0 0 -335z"/>
<path d="M5590 6297 c0 -2 -54 -150 -120 -328 -66 -178 -120 -327 -120 -331 0
-5 29 -8 64 -8 l65 0 31 83 c17 45 35 92 40 105 9 22 12 22 189 22 l179 0 28
-72 c57 -152 44 -138 118 -138 37 0 66 2 66 3 0 9 -229 630 -239 647 -6 10
-28 16 -74 18 l-66 3 25 -68 c14 -37 46 -123 70 -190 l43 -123 -150 0 -150 0
6 23 c12 38 105 290 120 325 l15 32 -70 0 c-39 0 -70 -2 -70 -3z"/>
<path d="M6221 6244 c-27 -71 -36 -182 -22 -259 36 -195 178 -333 372 -358
292 -39 528 149 529 421 l0 52 -252 -2 -253 -3 0 -30 0 -30 184 -3 184 -2 -6
-49 c-12 -97 -83 -198 -170 -240 -103 -50 -201 -46 -298 12 -106 64 -161 174
-161 322 0 86 4 106 47 208 6 15 0 17 -63 17 l-71 0 -20 -56z"/>
<path d="M6910 6292 c0 -22 29 -32 93 -32 59 0 68 2 63 16 -3 9 -6 18 -6 20 0
2 -34 4 -75 4 -41 0 -75 -4 -75 -8z"/>
<path d="M7220 5965 l0 -335 253 2 252 3 0 35 0 35 -170 2 c-93 1 -178 2 -187
2 -16 1 -18 16 -18 166 l0 165 168 2 167 3 3 32 3 33 -168 2 -168 3 -3 93 -3
92 -64 0 -65 0 0 -335z"/>
<path d="M8210 6040 l0 -51 63 3 62 3 0 45 0 45 -62 3 -63 3 0 -51z"/>
<path d="M8490 6084 c0 -4 12 -26 28 -50 l27 -44 68 0 c67 0 68 0 56 23 -37
71 -46 77 -115 77 -35 0 -64 -3 -64 -6z"/>
<path d="M8787 6084 c-4 -4 -7 -27 -7 -51 l0 -44 68 3 67 3 0 45 0 45 -60 3
c-34 2 -64 0 -68 -4z"/>
<path d="M9036 6081 c-4 -5 -4 -28 0 -50 l7 -41 64 0 64 0 -3 48 -3 47 -62 3
c-34 2 -64 -2 -67 -7z"/>
<path d="M9818 6040 l-3 -51 65 3 65 3 3 48 3 47 -64 0 -65 0 -4 -50z"/>
<path d="M10260 6040 l0 -51 63 3 62 3 0 45 0 45 -62 3 -63 3 0 -51z"/>
<path d="M8210 5760 l0 -130 59 0 60 0 6 43 c3 23 5 80 3 127 l-3 85 -62 3
-63 3 0 -131z"/>
<path d="M8622 5881 c2 -4 39 -63 83 -130 l80 -122 65 3 65 3 0 125 0 125 -67
3 c-60 3 -68 1 -68 -15 -1 -17 -1 -17 -14 0 -10 13 -28 17 -80 17 -37 0 -66
-4 -64 -9z"/>
<path d="M9074 5874 c16 -42 83 -129 123 -159 97 -74 195 -101 329 -91 126 9
209 42 285 113 46 43 99 119 99 142 0 7 -25 11 -64 11 -63 0 -65 -1 -86 -35
-70 -113 -232 -179 -348 -141 -73 25 -135 70 -173 126 l-34 49 -69 1 c-58 0
-67 -2 -62 -16z"/>
<path d="M10260 5760 l0 -131 63 3 62 3 3 105 c4 150 4 150 -68 150 l-60 0 0
-130z"/>
<path d="M11080 5760 l0 -131 63 3 62 3 3 128 3 127 -66 0 -65 0 0 -130z"/>
<path d="M11700 5885 c0 -21 51 -97 94 -140 93 -93 211 -132 363 -121 153 11
267 72 343 181 15 22 30 50 34 63 7 21 5 22 -62 22 -63 0 -70 -2 -80 -24 -48
-107 -214 -184 -335 -157 -69 15 -149 70 -193 132 l-36 49 -64 0 c-35 0 -64
-2 -64 -5z"/>
<path d="M12706 5863 c23 -98 85 -178 164 -212 97 -42 262 -37 356 11 75 37
143 132 144 201 0 26 -1 27 -60 27 -49 0 -62 -3 -66 -17 -14 -50 -53 -110 -82
-130 -18 -12 -57 -27 -85 -33 -101 -23 -186 24 -228 125 l-23 55 -63 0 -63 0
6 -27z"/>
<path d="M13540 5760 l0 -131 63 3 62 3 0 125 0 125 -62 3 -63 3 0 -131z"/>
<path d="M13962 5867 c7 -13 45 -71 83 -130 l70 -107 65 2 65 3 0 125 0 125
-62 3 c-60 3 -63 2 -63 -20 l-1 -23 -18 23 c-16 19 -29 22 -85 22 -67 0 -67 0
-54 -23z"/>
</g>
</svg>
