<?xml version="1.0" standalone="no"?>
<!DOCTYPE svg PUBLIC "-//W3C//DTD SVG 20010904//EN"
 "http://www.w3.org/TR/2001/REC-SVG-20010904/DTD/svg10.dtd">
<svg version="1.0" xmlns="http://www.w3.org/2000/svg"
 width="1024.000000pt" height="855.000000pt" viewBox="0 0 1024.000000 855.000000"
 preserveAspectRatio="xMidYMid meet">

<g transform="translate(0.000000,855.000000) scale(0.100000,-0.100000)"
fill="#000000" stroke="none">
<path d="M0 4275 l0 -4275 5120 0 5120 0 0 4275 0 4275 -5120 0 -5120 0 0
-4275z m7623 2218 c-7 -2 -19 -2 -25 0 -7 3 -2 5 12 5 14 0 19 -2 13 -5z
m-585 -100 c-10 -2 -26 -2 -35 0 -10 3 -2 5 17 5 19 0 27 -2 18 -5z m-2881
-19 c-3 -3 -12 -4 -19 -1 -8 3 -5 6 6 6 11 1 17 -2 13 -5z m1090 -30 c-3 -3
-12 -4 -19 -1 -8 3 -5 6 6 6 11 1 17 -2 13 -5z m1306 -91 c-7 -2 -19 -2 -25 0
-7 3 -2 5 12 5 14 0 19 -2 13 -5z m70 0 c-7 -2 -21 -2 -30 0 -10 3 -4 5 12 5
17 0 24 -2 18 -5z m-2830 -350 c-79 -2 -207 -2 -285 0 -79 1 -15 3 142 3 157
0 221 -2 143 -3z m2710 -50 c-13 -2 -33 -2 -45 0 -13 2 -3 4 22 4 25 0 35 -2
23 -4z m-3085 -150 c-10 -2 -26 -2 -35 0 -10 3 -2 5 17 5 19 0 27 -2 18 -5z
m2317 -173 c-3 -5 -12 -10 -18 -10 -7 0 -6 4 3 10 19 12 23 12 15 0z m35 0 c0
-5 -5 -10 -11 -10 -5 0 -7 5 -4 10 3 6 8 10 11 10 2 0 4 -4 4 -10z m35 0 c-3
-5 -11 -10 -16 -10 -6 0 -7 5 -4 10 3 6 11 10 16 10 6 0 7 -4 4 -10z m55 6 c0
-2 -9 -6 -20 -9 -11 -3 -20 -1 -20 4 0 5 9 9 20 9 11 0 20 -2 20 -4z m-3392
-13 c-10 -2 -26 -2 -35 0 -10 3 -2 5 17 5 19 0 27 -2 18 -5z m85 0 c-7 -2 -21
-2 -30 0 -10 3 -4 5 12 5 17 0 24 -2 18 -5z m4920 -20 c-7 -2 -21 -2 -30 0
-10 3 -4 5 12 5 17 0 24 -2 18 -5z m-5030 -50 c-13 -2 -33 -2 -45 0 -13 2 -3
4 22 4 25 0 35 -2 23 -4z m524 -49 c-3 -3 -12 -4 -19 -1 -8 3 -5 6 6 6 11 1
17 -2 13 -5z m4806 -541 c-7 -2 -19 -2 -25 0 -7 3 -2 5 12 5 14 0 19 -2 13 -5z
m-3716 -39 c-3 -3 -12 -4 -19 -1 -8 3 -5 6 6 6 11 1 17 -2 13 -5z m0 -36 c-3
-8 -6 -5 -6 6 -1 11 2 17 5 13 3 -3 4 -12 1 -19z m1703 -18 c0 -5 -5 -10 -11
-10 -5 0 -7 5 -4 10 3 6 8 10 11 10 2 0 4 -4 4 -10z m-1709 -37 c-9 -15 -10
-14 -7 7 6 35 7 37 12 23 3 -7 1 -20 -5 -30z m1754 0 c13 -16 24 -32 24 -38 0
-5 -11 2 -24 18 -13 15 -29 27 -35 27 -6 0 -8 5 -5 10 9 15 14 13 40 -17z
m1968 12 c-3 -9 -8 -14 -10 -11 -3 3 -2 9 2 15 9 16 15 13 8 -4z m-726 -11
c-3 -3 -12 -4 -19 -1 -8 3 -5 6 6 6 11 1 17 -2 13 -5z m109 -70 c-3 -8 -11
-14 -18 -13 -10 0 -10 2 0 6 6 2 13 17 13 31 1 18 3 21 6 9 3 -10 2 -25 -1
-33z m621 40 c-3 -3 -12 -4 -19 -1 -8 3 -5 6 6 6 11 1 17 -2 13 -5z m-1764
-21 c-7 -2 -19 -2 -25 0 -7 3 -2 5 12 5 14 0 19 -2 13 -5z m37 -47 c0 -16 -7
-26 -22 -29 -12 -4 -24 -4 -27 -1 -3 3 5 7 17 11 12 3 19 9 16 14 -5 9 3 29
12 29 2 0 4 -11 4 -24z m-1993 -2 c-3 -3 -12 -4 -19 -1 -8 3 -5 6 6 6 11 1 17
-2 13 -5z m3943 -24 c0 -16 -2 -30 -4 -30 -2 0 -6 14 -8 30 -3 17 -1 30 4 30
4 0 8 -13 8 -30z m-3940 -28 c0 -4 -16 -6 -35 -4 -19 2 -35 6 -35 8 0 2 16 4
35 4 19 0 35 -4 35 -8z m4077 -8 c-3 -3 -12 -4 -19 -1 -8 3 -5 6 6 6 11 1 17
-2 13 -5z m-440 -20 c-3 -3 -12 -4 -19 -1 -8 3 -5 6 6 6 11 1 17 -2 13 -5z
m433 -51 c0 -25 -3 -43 -6 -40 -10 9 -11 87 -1 87 4 0 7 -21 7 -47z m-4517 30
c-7 -2 -21 -2 -30 0 -10 3 -4 5 12 5 17 0 24 -2 18 -5z m435 -28 c-3 -3 -9 2
-12 12 -6 14 -5 15 5 6 7 -7 10 -15 7 -18z m1899 9 c-3 -3 -12 -4 -19 -1 -8 3
-5 6 6 6 11 1 17 -2 13 -5z m-1887 -104 l0 -80 -27 1 c-25 2 -26 2 -5 6 21 4
23 10 22 51 -2 68 -1 102 5 102 3 0 5 -36 5 -80z m3708 63 c-10 -2 -26 -2 -35
0 -10 3 -2 5 17 5 19 0 27 -2 18 -5z m5 -30 c-7 -2 -21 -2 -30 0 -10 3 -4 5
12 5 17 0 24 -2 18 -5z m7 -113 c0 -73 -3 -90 -15 -90 -11 0 -12 5 -5 26 15
37 13 141 -2 147 -8 3 -6 6 5 6 15 1 17 -10 17 -89z m-1777 73 c-7 -2 -19 -2
-25 0 -7 3 -2 5 12 5 14 0 19 -2 13 -5z m37 -80 c0 -32 -5 -28 -14 10 -4 19
-3 26 4 22 5 -3 10 -18 10 -32z m-1982 -30 c-10 -2 -28 -2 -40 0 -13 2 -5 4
17 4 22 1 32 -1 23 -4z m2012 -80 c6 -37 15 -72 20 -78 12 -15 19 -95 9 -101
-5 -3 -10 5 -10 18 -3 45 -6 64 -24 123 -23 81 -27 105 -16 105 5 0 14 -30 21
-67z m-2012 15 c-1 -41 -1 -41 -5 -8 -3 19 -10 38 -16 42 -8 5 -6 8 6 8 14 0
17 -8 15 -42z m1036 -26 c-7 -4 -17 -27 -23 -52 l-11 -45 6 44 c5 50 10 61 27
61 9 0 9 -2 1 -8z m-1034 -44 c0 -18 -2 -20 -9 -8 -6 8 -7 18 -5 22 9 14 14 9
14 -14z m-13 -74 c-3 -3 -12 -4 -19 -1 -8 3 -5 6 6 6 11 1 17 -2 13 -5z m3733
-154 c0 -88 -4 -160 -8 -160 -4 0 -8 72 -8 160 -1 88 3 160 7 160 5 0 9 -72 9
-160z m-2720 120 c0 -11 -4 -20 -9 -20 -5 0 -7 9 -4 20 3 11 7 20 9 20 2 0 4
-9 4 -20z m1030 -205 c-4 -88 -7 -155 -8 -150 -10 37 2 336 12 313 0 -2 -1
-75 -4 -163z m-1039 28 c-4 -28 -6 -32 -9 -15 -3 22 3 52 11 52 1 0 1 -17 -2
-37z m-1004 -30 c-3 -10 -5 -4 -5 12 0 17 2 24 5 18 2 -7 2 -21 0 -30z m2973
-2 c0 -5 -9 -19 -20 -32 l-20 -24 17 32 c19 34 23 39 23 24z m-1973 -73 c-2
-13 -4 -3 -4 22 0 25 2 35 4 23 2 -13 2 -33 0 -45z m-995 8 c-6 -48 -12 -46
-12 5 0 22 4 38 8 35 4 -3 6 -21 4 -40z m2922 -11 c-4 -8 -8 -15 -10 -15 -2 0
-4 7 -4 15 0 8 4 15 10 15 5 0 7 -7 4 -15z m993 -51 c-3 -3 -12 -4 -19 -1 -8
3 -5 6 6 6 11 1 17 -2 13 -5z m-2897 -70 c7 -31 21 -72 33 -92 18 -31 18 -35
4 -23 -22 18 -47 75 -47 108 0 13 -3 22 -8 20 -4 -3 -7 8 -7 23 -1 44 12 25
25 -36z m-2907 3 c12 -2 4 -5 -18 -5 -22 0 -34 2 -27 5 6 2 13 17 13 31 l2 27
4 -27 c3 -18 12 -28 26 -31z m5820 -17 c-8 -55 -13 -49 -12 16 0 41 3 53 9 39
4 -11 6 -36 3 -55z m-1900 33 c-7 -2 -21 -2 -30 0 -10 3 -4 5 12 5 17 0 24 -2
18 -5z m-9 -50 c-4 -16 -11 -37 -15 -48 -7 -15 -8 -13 -5 10 3 17 5 38 5 48 1
9 6 17 11 17 6 0 8 -11 4 -27z m1908 -85 c-5 -89 -9 -97 -11 -20 0 39 2 72 7
72 4 0 6 -24 4 -52z m-1935 -10 c-3 -8 -6 -5 -6 6 -1 11 2 17 5 13 3 -3 4 -12
1 -19z m-912 -18 c3 -5 1 -10 -4 -10 -6 0 -11 5 -11 10 0 6 2 10 4 10 3 0 8
-4 11 -10z m879 -112 c-9 -29 -25 -66 -36 -83 -16 -27 -18 -28 -18 -7 0 12 4
22 9 22 8 0 29 43 35 71 9 42 20 72 24 61 2 -6 -4 -36 -14 -64z m1963 -105
c-2 -27 -3 -5 -3 47 0 52 1 74 3 48 2 -27 2 -69 0 -95z m-3734 80 c-7 -2 -19
-2 -25 0 -7 3 -2 5 12 5 14 0 19 -2 13 -5z m-6 -29 c-3 -3 -12 -4 -19 -1 -8 3
-5 6 6 6 11 1 17 -2 13 -5z m-9 -51 c-10 -2 -26 -2 -35 0 -10 3 -2 5 17 5 19
0 27 -2 18 -5z m1703 -70 c-8 -15 -10 -15 -11 -2 0 17 10 32 18 25 2 -3 -1
-13 -7 -23z m2046 -15 c-3 -7 -5 -2 -5 12 0 14 2 19 5 13 2 -7 2 -19 0 -25z
m-2076 -41 c-10 -9 -11 -8 -5 6 3 10 9 15 12 12 3 -3 0 -11 -7 -18z m-1664
-23 c-3 -3 -12 -4 -19 -1 -8 3 -5 6 6 6 11 1 17 -2 13 -5z m1627 -18 c-3 -8
-13 -17 -22 -21 -13 -5 -13 -2 3 15 21 24 26 25 19 6z m-1627 -12 c-3 -3 -12
-4 -19 -1 -8 3 -5 6 6 6 11 1 17 -2 13 -5z m1573 -44 c-11 -11 -23 -20 -27
-20 -3 0 2 9 12 20 10 11 22 20 27 20 4 0 -1 -9 -12 -20z m1970 -10 c0 -5 -4
-10 -10 -10 -5 0 -10 5 -10 10 0 6 5 10 10 10 6 0 10 -4 10 -10z m-3 -84 c2
-36 0 -67 -5 -69 -6 -4 -10 103 -4 126 5 18 7 3 9 -57z m-3730 -88 c-3 -8 -6
-5 -6 6 -1 11 2 17 5 13 3 -3 4 -12 1 -19z m1060 -44 c-3 -3 -12 -4 -19 -1 -8
3 -5 6 6 6 11 1 17 -2 13 -5z m0 -466 c-3 -7 -5 -2 -5 12 0 14 2 19 5 13 2 -7
2 -19 0 -25z m1650 -200 c-1 -46 -3 -11 -3 77 0 88 2 125 3 83 2 -42 2 -114 0
-160z m-3867 212 c0 -5 -5 -10 -11 -10 -5 0 -7 5 -4 10 3 6 8 10 11 10 2 0 4
-4 4 -10z m787 -27 c-3 -10 -5 -4 -5 12 0 17 2 24 5 18 2 -7 2 -21 0 -30z
m800 -165 c-1 -40 -3 -10 -3 67 0 77 1 110 3 73 2 -37 2 -100 0 -140z m1180
165 c-3 -10 -5 -4 -5 12 0 17 2 24 5 18 2 -7 2 -21 0 -30z m830 -160 c-2 -38
-3 -7 -3 67 0 74 1 105 3 68 2 -38 2 -98 0 -135z m420 160 c-3 -10 -5 -4 -5
12 0 17 2 24 5 18 2 -7 2 -21 0 -30z m460 5 c-3 -7 -5 -2 -5 12 0 14 2 19 5
13 2 -7 2 -19 0 -25z m-4494 -18 c-3 -12 -8 -19 -11 -16 -5 6 5 36 12 36 2 0
2 -9 -1 -20z m2788 -183 c1 -87 -1 -161 -5 -164 -3 -3 -6 69 -6 162 0 93 2
166 5 164 2 -3 5 -76 6 -162z m1254 113 c-7 -36 -11 -32 -12 12 -1 29 2 37 8
26 5 -8 6 -25 4 -38z m452 -12 c-2 -13 -4 -3 -4 22 0 25 2 35 4 23 2 -13 2
-33 0 -45z m278 34 c-3 -3 -11 0 -18 7 -9 10 -8 11 6 5 10 -3 15 -9 12 -12z
m-4792 -12 c-3 -12 -8 -19 -11 -16 -5 6 5 36 12 36 2 0 2 -9 -1 -20z m824
-252 c-1 -51 -3 -10 -3 92 0 102 2 143 3 93 2 -51 2 -135 0 -185z m523 257 c0
-8 -2 -15 -4 -15 -2 0 -6 7 -10 15 -3 8 -1 15 4 15 6 0 10 -7 10 -15z m1771
-37 c-9 -28 -17 -44 -19 -36 -3 15 23 88 31 88 2 0 -4 -23 -12 -52z m-3331 20
c0 -13 -10 -34 -21 -48 l-21 -25 14 25 c8 14 14 35 13 48 -1 12 2 22 7 22 4 0
8 -10 8 -22z m2597 -15 c-3 -10 -5 -4 -5 12 0 17 2 24 5 18 2 -7 2 -21 0 -30z
m-2845 -23 c3 -17 1 -33 -4 -36 -4 -3 -8 11 -8 30 0 44 6 47 12 6z m1805 -22
c-2 -13 -4 -5 -4 17 -1 22 1 32 4 23 2 -10 2 -28 0 -40z m811 1 c-3 -33 -4
-33 -8 8 -3 23 -2 39 3 34 5 -5 7 -24 5 -42z m2672 16 c0 -5 -5 -3 -10 5 -5 8
-10 20 -10 25 0 6 5 3 10 -5 5 -8 10 -19 10 -25z m-473 -72 c-2 -21 -4 -6 -4
32 0 39 2 55 4 38 2 -18 2 -50 0 -70z m-4037 77 c0 -5 -5 -10 -11 -10 -5 0 -7
5 -4 10 3 6 8 10 11 10 2 0 4 -4 4 -10z m1447 -27 c-3 -10 -5 -4 -5 12 0 17 2
24 5 18 2 -7 2 -21 0 -30z m620 5 c-3 -8 -6 -5 -6 6 -1 11 2 17 5 13 3 -3 4
-12 1 -19z m1110 -70 c-2 -18 -4 -4 -4 32 0 36 2 50 4 33 2 -18 2 -48 0 -65z
m-3520 67 c0 -8 -4 -12 -9 -9 -5 3 -6 10 -3 15 9 13 12 11 12 -6z m330 -72
c-2 -16 -4 -3 -4 27 0 30 2 43 4 28 2 -16 2 -40 0 -55z m4210 -125 c-2 -35 -3
-7 -3 62 0 69 1 97 3 63 2 -35 2 -91 0 -125z m-4553 157 c-4 -8 -10 -15 -15
-15 -4 0 -6 7 -3 15 4 8 10 15 15 15 4 0 6 -7 3 -15z m549 -5 c3 -11 1 -20 -4
-20 -5 0 -9 9 -9 20 0 11 2 20 4 20 2 0 6 -9 9 -20z m1244 -2 c-3 -8 -6 -5 -6
6 -1 11 2 17 5 13 3 -3 4 -12 1 -19z m630 -25 c-3 -10 -5 -2 -5 17 0 19 2 27
5 18 2 -10 2 -26 0 -35z m-2844 12 c-7 -21 -13 -19 -13 6 0 11 4 18 10 14 5
-3 7 -12 3 -20z m1807 0 c0 -14 -4 -25 -9 -25 -4 0 -6 11 -3 25 2 14 6 25 8
25 2 0 4 -11 4 -25z m148 -10 c-3 -3 -9 2 -12 12 -6 14 -5 15 5 6 7 -7 10 -15
7 -18z m659 -17 c-3 -7 -5 -2 -5 12 0 14 2 19 5 13 2 -7 2 -19 0 -25z m-2215
-5 c-3 -16 -7 -22 -10 -15 -4 13 4 42 11 42 2 0 2 -12 -1 -27z m755 -10 c-3
-10 -5 -4 -5 12 0 17 2 24 5 18 2 -7 2 -21 0 -30z m4130 5 c-3 -8 -6 -5 -6 6
-1 11 2 17 5 13 3 -3 4 -12 1 -19z m-1707 -35 c0 -32 -5 -28 -14 10 -4 19 -3
26 4 22 5 -3 10 -18 10 -32z m517 5 c-3 -7 -5 -2 -5 12 0 14 2 19 5 13 2 -7 2
-19 0 -25z m-1250 0 c-3 -8 -6 -5 -6 6 -1 11 2 17 5 13 3 -3 4 -12 1 -19z
m-1044 -44 c-3 -78 -13 -82 -13 -6 0 34 4 62 8 62 4 0 7 -25 5 -56z m441 41
c3 -8 1 -15 -4 -15 -6 0 -10 7 -10 15 0 8 2 15 4 15 2 0 6 -7 10 -15z m-1863
-18 c-10 -9 -11 -8 -5 6 3 10 9 15 12 12 3 -3 0 -11 -7 -18z m1643 -17 c10
-13 9 -13 -6 -1 -10 7 -18 21 -17 30 0 13 1 14 6 1 3 -8 11 -22 17 -30z m2715
6 c-3 -3 -11 5 -18 17 -13 21 -12 21 5 5 10 -10 16 -20 13 -22z m-3938 -3 c13
-16 12 -17 -3 -4 -17 13 -22 21 -14 21 2 0 10 -8 17 -17z m2047 -54 l-3 -44
-5 52 c-3 29 -1 48 3 44 5 -5 7 -28 5 -52z m-2851 9 c-3 -8 -6 -5 -6 6 -1 11
2 17 5 13 3 -3 4 -12 1 -19z m653 12 c0 -5 -2 -10 -4 -10 -3 0 -8 5 -11 10 -3
6 -1 10 4 10 6 0 11 -4 11 -10z m-294 -26 c-4 -9 -9 -15 -11 -12 -3 3 -3 13 1
22 4 9 9 15 11 12 3 -3 3 -13 -1 -22z m1935 9 c13 -16 12 -17 -3 -4 -17 13
-22 21 -14 21 2 0 10 -8 17 -17z m2226 -15 c-3 -7 -5 -2 -5 12 0 14 2 19 5 13
2 -7 2 -19 0 -25z m-2447 -8 c12 -23 12 -24 -3 -11 -10 7 -17 20 -17 29 0 18
3 16 20 -18z m2720 0 c6 -11 8 -20 6 -20 -3 0 -10 9 -16 20 -6 11 -8 20 -6 20
3 0 10 -9 16 -20z m-4787 -10 c3 -11 1 -20 -4 -20 -5 0 -9 9 -9 20 0 11 2 20
4 20 2 0 6 -9 9 -20z m665 -15 c-3 -3 -9 2 -12 12 -6 14 -5 15 5 6 7 -7 10
-15 7 -18z m2599 3 c-3 -8 -6 -5 -6 6 -1 11 2 17 5 13 3 -3 4 -12 1 -19z"/>
</g>
</svg>
